<?xml version="1.0" encoding="UTF-8" standalone="no"?>
<!DOCTYPE svg PUBLIC "-//W3C//DTD SVG 1.1//EN" "http://www.w3.org/Graphics/SVG/1.1/DTD/svg11.dtd">
<svg version="1.1" xmlns="http://www.w3.org/2000/svg" xmlns:xlink="http://www.w3.org/1999/xlink" preserveAspectRatio="xMidYMid meet" viewBox="0 0 640 640" width="640" height="640"><defs><path d="M309.06 546.47C316.62 546.47 322.75 552.6 322.75 560.16C322.75 567.61 322.75 576.28 322.75 583.74C322.75 591.3 316.62 597.43 309.06 597.43C253.34 597.43 99.9 597.43 44.19 597.43C36.63 597.43 30.5 591.3 30.5 583.74C30.5 576.28 30.5 567.61 30.5 560.16C30.5 552.6 36.63 546.47 44.19 546.47C99.9 546.47 253.34 546.47 309.06 546.47Z" id="a56tYIsu3C"></path><path d="M546.92 226.35C555.21 226.35 561.93 233.07 561.93 241.36C561.93 245.55 561.93 243.1 561.93 247.29C561.93 255.58 555.21 262.3 546.92 262.3C530.79 262.3 497.43 262.3 481.3 262.3C473 262.3 466.28 255.58 466.28 247.29C466.28 243.1 466.28 245.55 466.28 241.36C466.28 233.07 473 226.35 481.3 226.35C497.43 226.35 530.79 226.35 546.92 226.35Z" id="a2K5ZC4PXz"></path><mask id="maskb3Ec77DgMF" x="464.28" y="224.35" width="99.65" height="39.96" maskUnits="userSpaceOnUse"><rect x="464.28" y="224.35" width="99.65" height="39.96" fill="white"></rect><use xlink:href="#a2K5ZC4PXz" opacity="1" fill="black"></use></mask><path d="M467.43 235.55C472.09 227.23 482.7 224.39 490.9 229.26C495.81 232.19 495.59 232.06 500.51 234.98C508.83 239.94 511.69 250.62 506.96 259.07C468.67 327.44 362.29 517.36 324 585.72C319.34 594.05 308.73 596.89 300.53 592.01C295.62 589.08 295.84 589.21 290.92 586.29C282.6 581.33 279.74 570.65 284.47 562.2C322.76 493.83 429.14 303.92 467.43 235.55Z" id="c70MixHvpj"></path><path d="M30.5 19.81L76.5 19.81L76.5 584.95L30.5 584.95L30.5 19.81Z" id="c1kuI1F7Am"></path></defs><g><g><g><use xlink:href="#a56tYIsu3C" opacity="1" fill="#f01716" fill-opacity="1"></use></g><g><use xlink:href="#a2K5ZC4PXz" opacity="1" fill="#f01716" fill-opacity="1"></use><g mask="url(#maskb3Ec77DgMF)"><use xlink:href="#a2K5ZC4PXz" opacity="1" fill-opacity="0" stroke="#000000" stroke-width="2" stroke-opacity="1"></use></g></g><g><use xlink:href="#c70MixHvpj" opacity="1" fill="#f01716" fill-opacity="1"></use></g><g><use xlink:href="#c1kuI1F7Am" opacity="1" fill="#f01716" fill-opacity="1"></use></g></g></g></svg>