<?xml version="1.0" encoding="UTF-8" standalone="no"?>
<!DOCTYPE svg PUBLIC "-//W3C//DTD SVG 1.1//EN" "http://www.w3.org/Graphics/SVG/1.1/DTD/svg11.dtd">
<svg version="1.1" xmlns="http://www.w3.org/2000/svg" xmlns:xlink="http://www.w3.org/1999/xlink" preserveAspectRatio="xMidYMid meet" viewBox="0 0 640 640" width="2560" height="2560"><defs><path d="M192.9 388.87L186.61 379.89L345.13 268.9L351.41 277.87L192.9 388.87Z" id="aB6580wOQ"></path><path d="M349.03 320.75C350.35 320.75 351.41 319.69 351.41 318.37C351.41 308.66 351.41 281.9 351.41 272.19C351.41 270.88 350.35 269.82 349.03 269.82C348.14 269.82 347.83 269.82 346.94 269.82C345.63 269.82 344.56 270.88 344.56 272.19C344.56 281.9 344.56 308.66 344.56 318.37C344.56 319.69 345.63 320.75 346.94 320.75C347.83 320.75 348.14 320.75 349.03 320.75Z" id="a2qoEPD5Ft"></path><path d="M189.06 378.63C191.7 378.63 193.85 380.78 193.85 383.42C193.85 400.63 193.85 447.43 193.85 464.63C193.85 467.28 191.7 469.43 189.06 469.43C188.1 469.43 190.02 469.43 189.06 469.43C186.41 469.43 184.26 467.28 184.26 464.63C184.26 447.43 184.26 400.63 184.26 383.42C184.26 380.78 186.41 378.63 189.06 378.63C190.02 378.63 188.1 378.63 189.06 378.63Z" id="byNLgMx4b"></path><path d="M258.87 458.47C260.87 458.47 262.48 460.09 262.48 462.09C262.48 463.55 262.48 464.34 262.48 465.81C262.48 467.81 260.87 469.43 258.87 469.43C244.15 469.43 203.6 469.43 188.88 469.43C186.88 469.43 185.26 467.81 185.26 465.81C185.26 464.34 185.26 463.55 185.26 462.09C185.26 460.09 186.88 458.47 188.88 458.47C203.6 458.47 244.15 458.47 258.87 458.47Z" id="e6ucjylqa"></path><path d="M449.89 269.69C451.77 272.06 451.38 275.5 449.02 277.39C417.92 302.18 328.9 373.12 297.79 397.91C295.43 399.8 291.98 399.41 290.09 397.04C289.41 396.18 290.78 397.9 290.09 397.04C288.21 394.67 288.6 391.23 290.96 389.34C322.07 364.55 411.08 293.61 442.19 268.82C444.55 266.93 448 267.32 449.89 269.69C450.57 270.55 449.2 268.83 449.89 269.69Z" id="a28shYZ92S"></path><path d="M466.75 271.61C468.34 273.48 468.12 276.29 466.25 277.88C437.49 302.43 354.59 373.19 325.83 397.73C323.96 399.33 321.15 399.11 319.56 397.24C318.94 396.51 319.98 397.73 319.36 397C317.76 395.14 317.98 392.33 319.85 390.73C348.61 366.19 431.51 295.43 460.27 270.88C462.14 269.29 464.95 269.51 466.55 271.38C467.16 272.1 466.13 270.89 466.75 271.61Z" id="g1MRRhlHGc"></path><path d="M465.56 267.63C466.8 267.63 467.81 268.63 467.81 269.88C467.81 271.27 467.81 273.18 467.81 274.57C467.81 275.82 466.8 276.83 465.56 276.83C461.11 276.83 450.04 276.83 445.6 276.83C444.35 276.83 443.34 275.82 443.34 274.57C443.34 273.18 443.34 271.27 443.34 269.88C443.34 268.63 444.35 267.63 445.6 267.63C450.04 267.63 461.11 267.63 465.56 267.63Z" id="a8ndjhGej"></path><path d="M321.73 390.2C325.31 390.2 328.22 393.1 328.22 396.69C328.22 399.09 328.22 399.81 328.22 402.21C328.22 405.79 325.31 408.69 321.73 408.69C314.77 408.69 300.35 408.69 293.39 408.69C289.8 408.69 286.9 405.79 286.9 402.21C286.9 399.81 286.9 399.09 286.9 396.69C286.9 393.1 289.8 390.2 293.39 390.2C300.35 390.2 314.77 390.2 321.73 390.2Z" id="c1Wnkx20Lw"></path><mask id="maskd2MzI8EhHs" x="284.9" y="388.2" width="45.32" height="22.5" maskUnits="userSpaceOnUse"><rect x="284.9" y="388.2" width="45.32" height="22.5" fill="white"></rect><use xlink:href="#c1Wnkx20Lw" opacity="1" fill="black"></use></mask><path d="M289.02 392.74C289.98 391.02 292.16 390.44 293.85 391.44C295.48 392.42 297.32 393.51 298.95 394.48C300.66 395.5 301.25 397.7 300.28 399.44C292.41 413.49 270.54 452.53 262.67 466.59C261.71 468.3 259.53 468.89 257.84 467.88C256.2 466.91 254.37 465.82 252.73 464.84C251.02 463.82 250.43 461.63 251.41 459.89C259.28 445.83 281.15 406.79 289.02 392.74Z" id="b21S3VUmHC"></path><path d="M344.56 320.9C344.56 321.92 345.38 322.74 346.4 322.74C353.89 322.74 374.55 322.74 382.05 322.74C383.06 322.74 383.88 321.92 383.88 320.9C383.88 320.18 383.88 319.82 383.88 319.1C383.88 318.08 383.06 317.26 382.05 317.26C374.55 317.26 353.89 317.26 346.4 317.26C345.38 317.26 344.56 318.08 344.56 319.1C344.56 319.82 344.56 320.18 344.56 320.9Z" id="a1aZLjYmRE"></path><path d="M318.29 382.51L456.38 267.56L462.15 274.72L324.07 389.67L318.29 382.51Z" id="a4HqxlA2Sp"></path><path d="M312.8 388.86L315.55 388.86L318.55 388.86L321.3 388.86L324.05 388.61L325.8 386.36L324.55 388.61L321.8 389.11" id="a3k0KvswOR"></path><path d="M323.55 389.86L322.8 387.36L323.05 384.36L321.55 386.86" id="d3HTYRFCL4"></path><path d="M344.9 270.06L347.4 269.81L349.9 270.31" id="a27B2Hk7Se"></path><path d="M458.47 269.94L465.81 270.99L461.95 274.17L458.47 269.94Z" id="d62XSaWvn"></path><path d="M456.83 269.01L457.33 269.94L459.21 270.26L461.77 270.26L465.08 270.26L466.33 270.26L466.33 269.01L465.46 268.39L456.65 268.39" id="d42b8y7k84"></path><path d="M465.37 268.11L456.37 268.11" id="a2WKYiRk5m"></path><path d="" id="e1bXzf8E2d"></path><path d="M467.53 269.57L464.91 271.74" id="e1O5fXQ9er"></path><path d="M467.59 268.93C467.59 269.69 466.47 270.31 465.09 270.31C463.71 270.31 462.59 269.69 462.59 268.93C462.59 268.18 463.71 267.56 465.09 267.56C466.47 267.56 467.59 268.18 467.59 268.93Z" id="a1rbZ9KhDQ"></path><path d="M467.33 269.82L467.33 269.57L467.15 269.06" id="e57szUGhRj"></path><path d="M467.81 269.92L467.62 269.82L467.81 269.82L467.81 269.92Z" id="jy4sptxLd"></path><path d="M324.05 389.67L310.75 389.54L317.2 382.96L324.05 389.67Z" id="b4S2qZlUzM"></path><path d="M319.86 383.51L325.98 375.66L318.41 381.68L319.86 383.51Z" id="aoOtNPvHo"></path><path d="M310.68 389.86L320 381.48L310.07 389.07L310.68 389.86Z" id="c1pmVNBofN"></path><path d="M317.4 382.84L318.93 381.55L324.87 388.57L323.35 389.86L317.4 382.84Z" id="aJdOqOYP0"></path><path d="M316.06 383.51L320.52 383.51L320.52 386.9L316.06 386.9L316.06 383.51Z" id="a60L9zmi1"></path></defs><g><g><g><use xlink:href="#aB6580wOQ" opacity="1" fill="#f01716" fill-opacity="1"></use><g><use xlink:href="#aB6580wOQ" opacity="1" fill-opacity="0" stroke="#000000" stroke-width="1" stroke-opacity="1"></use></g></g><g><use xlink:href="#a2qoEPD5Ft" opacity="1" fill="#f01716" fill-opacity="1"></use></g><g><use xlink:href="#byNLgMx4b" opacity="1" fill="#f01716" fill-opacity="1"></use><g><use xlink:href="#byNLgMx4b" opacity="1" fill-opacity="0" stroke="#000000" stroke-width="1" stroke-opacity="1"></use></g></g><g><use xlink:href="#e6ucjylqa" opacity="1" fill="#f01716" fill-opacity="1"></use></g><g><use xlink:href="#a28shYZ92S" opacity="1" fill="#f01716" fill-opacity="1"></use></g><g><use xlink:href="#g1MRRhlHGc" opacity="1" fill="#f01716" fill-opacity="1"></use></g><g><use xlink:href="#a8ndjhGej" opacity="1" fill="#f01716" fill-opacity="1"></use></g><g><use xlink:href="#c1Wnkx20Lw" opacity="1" fill="#f01716" fill-opacity="1"></use><g mask="url(#maskd2MzI8EhHs)"><use xlink:href="#c1Wnkx20Lw" opacity="1" fill-opacity="0" stroke="#000000" stroke-width="2" stroke-opacity="1"></use></g></g><g><use xlink:href="#b21S3VUmHC" opacity="1" fill="#f01716" fill-opacity="1"></use><g><use xlink:href="#b21S3VUmHC" opacity="1" fill-opacity="0" stroke="#f01716" stroke-width="1" stroke-opacity="1"></use></g></g><g><use xlink:href="#a1aZLjYmRE" opacity="1" fill="#f01716" fill-opacity="1"></use></g><g><use xlink:href="#a4HqxlA2Sp" opacity="1" fill="#000000" fill-opacity="1"></use></g><g><use xlink:href="#a3k0KvswOR" opacity="1" fill="#000000" fill-opacity="1"></use><g><use xlink:href="#a3k0KvswOR" opacity="1" fill-opacity="0" stroke="#000000" stroke-width="1" stroke-opacity="1"></use></g></g><g><use xlink:href="#d3HTYRFCL4" opacity="1" fill="#000000" fill-opacity="1"></use><g><use xlink:href="#d3HTYRFCL4" opacity="1" fill-opacity="0" stroke="#000000" stroke-width="1" stroke-opacity="1"></use></g></g><g><g><use xlink:href="#a27B2Hk7Se" opacity="1" fill-opacity="0" stroke="#f01716" stroke-width="1" stroke-opacity="1"></use></g></g><g><use xlink:href="#d62XSaWvn" opacity="1" fill="#000000" fill-opacity="1"></use><g><use xlink:href="#d62XSaWvn" opacity="1" fill-opacity="0" stroke="#000000" stroke-width="1" stroke-opacity="1"></use></g></g><g><use xlink:href="#d42b8y7k84" opacity="1" fill="#000000" fill-opacity="1"></use><g><use xlink:href="#d42b8y7k84" opacity="1" fill-opacity="0" stroke="#000000" stroke-width="1" stroke-opacity="1"></use></g></g><g><use xlink:href="#a2WKYiRk5m" opacity="1" fill="#000000" fill-opacity="1"></use><g><use xlink:href="#a2WKYiRk5m" opacity="1" fill-opacity="0" stroke="#000000" stroke-width="1" stroke-opacity="1"></use></g></g><g><use xlink:href="#e1bXzf8E2d" opacity="1" fill="#f01716" fill-opacity="1"></use><g><use xlink:href="#e1bXzf8E2d" opacity="1" fill-opacity="0" stroke="#f01716" stroke-width="1" stroke-opacity="1"></use></g></g><g><g><use xlink:href="#e1O5fXQ9er" opacity="1" fill-opacity="0" stroke="#000000" stroke-width="1" stroke-opacity="1"></use></g></g><g><use xlink:href="#a1rbZ9KhDQ" opacity="1" fill="#000000" fill-opacity="1"></use></g><g><use xlink:href="#e57szUGhRj" opacity="1" fill="#000000" fill-opacity="1"></use><g><use xlink:href="#e57szUGhRj" opacity="1" fill-opacity="0" stroke="#000000" stroke-width="1" stroke-opacity="1"></use></g></g><g><use xlink:href="#jy4sptxLd" opacity="1" fill="#000000" fill-opacity="1"></use></g><g><use xlink:href="#b4S2qZlUzM" opacity="1" fill="#000000" fill-opacity="1"></use></g><g><use xlink:href="#aoOtNPvHo" opacity="1" fill="#000000" fill-opacity="1"></use></g><g><use xlink:href="#c1pmVNBofN" opacity="1" fill="#000000" fill-opacity="1"></use></g><g><use xlink:href="#aJdOqOYP0" opacity="1" fill="#000000" fill-opacity="1"></use></g><g><use xlink:href="#a60L9zmi1" opacity="1" fill="#000000" fill-opacity="1"></use></g></g></g></svg>