<?xml version="1.0" encoding="UTF-8" standalone="no"?>
<!DOCTYPE svg PUBLIC "-//W3C//DTD SVG 1.1//EN" "http://www.w3.org/Graphics/SVG/1.1/DTD/svg11.dtd">
<svg version="1.1" xmlns="http://www.w3.org/2000/svg" xmlns:xlink="http://www.w3.org/1999/xlink" preserveAspectRatio="xMidYMid meet" viewBox="0 0 640 640" width="640" height="640"><defs><path d="M77.12 314.17L70.84 305.19L442.58 44.9L448.86 53.87L77.12 314.17Z" id="e3DQb0IPuH"></path><path d="M447.73 133.49C450.02 133.45 451.83 131.56 451.78 129.28C451.45 112.38 450.51 65.84 450.17 48.95C450.13 46.67 448.24 44.86 445.96 44.9C444.85 44.92 445.65 44.91 444.54 44.93C442.26 44.98 440.44 46.86 440.49 49.15C440.83 66.04 441.76 112.58 442.1 129.47C442.14 131.75 444.03 133.57 446.32 133.52C447.43 133.5 446.62 133.51 447.73 133.49Z" id="b5uGpPCim"></path><path d="M74.11 305.63C76.78 305.63 78.95 307.8 78.95 310.47C78.95 341.17 78.95 428.41 78.95 459.1C78.95 461.78 76.78 463.95 74.11 463.95C73.14 463.95 75.07 463.95 74.11 463.95C71.43 463.95 69.26 461.78 69.26 459.1C69.26 428.41 69.26 341.17 69.26 310.47C69.26 307.8 71.43 305.63 74.11 305.63C75.07 305.63 73.14 305.63 74.11 305.63Z" id="b1CeUkLWfM"></path><path d="M442.33 129.45C442.33 131.7 444.15 133.52 446.4 133.52C463.01 133.52 508.77 133.52 525.38 133.52C527.62 133.52 529.44 131.7 529.44 129.46C529.44 128.33 529.44 129.02 529.44 127.9C529.44 125.66 527.62 123.83 525.38 123.83C508.77 123.83 463.01 123.83 446.4 123.83C444.15 123.83 442.33 125.65 442.33 127.9C442.33 129.02 442.33 128.33 442.33 129.45Z" id="a31kH2MfD2"></path><path d="M198.6 453.47C201.63 453.47 204.08 455.92 204.08 458.95C204.08 460.04 204.08 457.85 204.08 458.95C204.08 461.97 201.63 464.43 198.6 464.43C173.05 464.43 101.87 464.43 76.32 464.43C73.29 464.43 70.84 461.97 70.84 458.95C70.84 457.85 70.84 460.04 70.84 458.95C70.84 455.92 73.29 453.47 76.32 453.47C101.87 453.47 173.05 453.47 198.6 453.47Z" id="cjsiwHtbv"></path><path d="M605.63 71.54C609.54 76.45 608.73 83.6 603.82 87.51C538.71 139.4 352.25 288 287.14 339.9C282.23 343.81 275.08 343 271.17 338.09C269.75 336.32 272.59 339.87 271.17 338.09C267.26 333.19 268.07 326.04 272.97 322.12C338.09 270.23 524.54 121.63 589.66 69.74C594.56 65.82 601.71 66.63 605.63 71.54C607.04 73.32 604.21 69.76 605.63 71.54Z" id="c5HSAMt9xW"></path><path d="M299.37 325.06C303.15 325.06 306.22 328.13 306.22 331.91C306.22 334.24 306.22 334.37 306.22 336.7C306.22 340.49 303.15 343.56 299.37 343.56C292.01 343.56 276.78 343.56 269.42 343.56C265.63 343.56 262.57 340.49 262.57 336.7C262.57 334.37 262.57 334.24 262.57 331.91C262.57 328.13 265.63 325.06 269.42 325.06C276.78 325.06 292.01 325.06 299.37 325.06Z" id="cabIeIrOz"></path><mask id="maskf1rs77YuUK" x="260.57" y="323.06" width="47.65" height="22.5" maskUnits="userSpaceOnUse"><rect x="260.57" y="323.06" width="47.65" height="22.5" fill="white"></rect><use xlink:href="#cabIeIrOz" opacity="1" fill="black"></use></mask><path d="M262.02 331.23C263.77 328.11 267.74 327.04 270.82 328.87C271.95 329.55 269.73 328.23 270.86 328.9C273.98 330.76 275.05 334.76 273.28 337.93C258.92 363.56 219.04 434.76 204.68 460.4C202.93 463.52 198.96 464.58 195.88 462.75C194.75 462.08 196.97 463.4 195.84 462.73C192.72 460.87 191.65 456.87 193.42 453.7C207.78 428.06 247.66 356.86 262.02 331.23Z" id="bcJLabACk"></path></defs><g><g><g><use xlink:href="#e3DQb0IPuH" opacity="1" fill="#f01716" fill-opacity="1"></use><g><use xlink:href="#e3DQb0IPuH" opacity="1" fill-opacity="0" stroke="#000000" stroke-width="1" stroke-opacity="1"></use></g></g><g><use xlink:href="#b5uGpPCim" opacity="1" fill="#f01716" fill-opacity="1"></use><g><use xlink:href="#b5uGpPCim" opacity="1" fill-opacity="0" stroke="#000000" stroke-width="1" stroke-opacity="1"></use></g></g><g><use xlink:href="#b1CeUkLWfM" opacity="1" fill="#f01716" fill-opacity="1"></use><g><use xlink:href="#b1CeUkLWfM" opacity="1" fill-opacity="0" stroke="#000000" stroke-width="1" stroke-opacity="1"></use></g></g><g><use xlink:href="#a31kH2MfD2" opacity="1" fill="#f01716" fill-opacity="1"></use><g><use xlink:href="#a31kH2MfD2" opacity="1" fill-opacity="0" stroke="#000000" stroke-width="1" stroke-opacity="1"></use></g></g><g><use xlink:href="#cjsiwHtbv" opacity="1" fill="#f01716" fill-opacity="1"></use></g><g><use xlink:href="#c5HSAMt9xW" opacity="1" fill="#f01716" fill-opacity="1"></use></g><g><use xlink:href="#cabIeIrOz" opacity="1" fill="#f01716" fill-opacity="1"></use><g mask="url(#maskf1rs77YuUK)"><use xlink:href="#cabIeIrOz" opacity="1" fill-opacity="0" stroke="#000000" stroke-width="2" stroke-opacity="1"></use></g></g><g><use xlink:href="#bcJLabACk" opacity="1" fill="#f01716" fill-opacity="1"></use><g><use xlink:href="#bcJLabACk" opacity="1" fill-opacity="0" stroke="#f01716" stroke-width="1" stroke-opacity="1"></use></g></g></g></g></svg>